<svg xmlns="http://www.w3.org/2000/svg" width="75.502" height="20" viewBox="0 0 75.502 20">
  <path id="scoot" d="M51,19.524a7.008,7.008,0,0,1-2.311-1.386,6.545,6.545,0,0,1-1.6-2.241A7.519,7.519,0,0,1,46.5,12.83v-.337a7.444,7.444,0,0,1,.589-3.039,6.678,6.678,0,0,1,1.6-2.254A6.867,6.867,0,0,1,51,5.8a8.057,8.057,0,0,1,5.462,0,6.863,6.863,0,0,1,2.31,1.4,6.666,6.666,0,0,1,1.6,2.254,7.444,7.444,0,0,1,.589,3.039v.337a7.519,7.519,0,0,1-.589,3.067,6.533,6.533,0,0,1-1.6,2.241,7,7,0,0,1-2.31,1.386,8.071,8.071,0,0,1-5.462,0Zm-15.893,0a7.013,7.013,0,0,1-2.31-1.386A6.533,6.533,0,0,1,31.2,15.9a7.519,7.519,0,0,1-.589-3.067v-.337A7.444,7.444,0,0,1,31.2,9.454a6.666,6.666,0,0,1,1.6-2.254A6.872,6.872,0,0,1,35.1,5.8a8.059,8.059,0,0,1,5.463,0,6.872,6.872,0,0,1,2.31,1.4,6.666,6.666,0,0,1,1.6,2.254,7.444,7.444,0,0,1,.589,3.039v.337a7.519,7.519,0,0,1-.589,3.067,6.533,6.533,0,0,1-1.6,2.241,7.013,7.013,0,0,1-2.31,1.386,8.074,8.074,0,0,1-5.463,0Zm-15.864,0a6.758,6.758,0,0,1-2.31-1.372,6.284,6.284,0,0,1-1.541-2.213,7.589,7.589,0,0,1-.561-3v-.336a7.8,7.8,0,0,1,.561-3.026,6.721,6.721,0,0,1,1.554-2.3,6.812,6.812,0,0,1,2.326-1.456,7.942,7.942,0,0,1,2.843-.5,7.108,7.108,0,0,1,4.72,1.513,6.661,6.661,0,0,1,2.282,3.978l-3.473.9A3.632,3.632,0,0,0,24.575,9.58a3.406,3.406,0,0,0-2.521-.9,3.668,3.668,0,0,0-1.428.281,3.491,3.491,0,0,0-1.176.8,3.761,3.761,0,0,0-.8,1.26,4.489,4.489,0,0,0-.294,1.667v.168a4.271,4.271,0,0,0,.294,1.638,3.372,3.372,0,0,0,.8,1.191,3.3,3.3,0,0,0,1.176.715,4.255,4.255,0,0,0,1.428.238,3.463,3.463,0,0,0,2.479-.812,3.886,3.886,0,0,0,1.106-2.185l3.473.868a6.716,6.716,0,0,1-2.255,3.978A7.085,7.085,0,0,1,22.111,20,8.457,8.457,0,0,1,19.239,19.524ZM3.614,19.58a6.348,6.348,0,0,1-1.9-1.05,4.645,4.645,0,0,1-1.163-1.4A5.431,5.431,0,0,1,0,15.63l3.249-1.065a3.186,3.186,0,0,0,.939,1.569,3.113,3.113,0,0,0,2.2.672A2.937,2.937,0,0,0,8.194,16.4a1.152,1.152,0,0,0,.49-.883A1.081,1.081,0,0,0,8.557,15a1.241,1.241,0,0,0-.462-.448,3.109,3.109,0,0,0-.911-.35,10.424,10.424,0,0,0-1.443-.224A7.223,7.223,0,0,1,2,12.759,3.506,3.506,0,0,1,.617,9.748V9.58a3.607,3.607,0,0,1,.448-1.821,4.323,4.323,0,0,1,1.176-1.33A5.215,5.215,0,0,1,3.921,5.6a6.9,6.9,0,0,1,1.961-.281,7.26,7.26,0,0,1,2.283.322A5.531,5.531,0,0,1,9.8,6.484,4.858,4.858,0,0,1,10.9,7.633a6.2,6.2,0,0,1,.644,1.219L8.347,10.14A2.31,2.31,0,0,0,7.479,8.95a2.709,2.709,0,0,0-1.6-.434,2.308,2.308,0,0,0-1.345.321.957.957,0,0,0-.448.8,1,1,0,0,0,.7.966,10.294,10.294,0,0,0,2.549.491,6.654,6.654,0,0,1,3.474,1.274,3.5,3.5,0,0,1,1.345,2.927v.168a4.046,4.046,0,0,1-1.513,3.306A6.57,6.57,0,0,1,6.386,20,8.084,8.084,0,0,1,3.614,19.58Zm65.5.028a2.079,2.079,0,0,1-1.554-.616,2.153,2.153,0,0,1-.6-1.569V9.076H62.841V5.714h4.118V0h3.529V5.714H75.5V9.076H70.488v6.331q0,.84.757.841H75v3.361Z" fill="#495567"/>
</svg>
