<svg id="Group_9" data-name="Group 9" xmlns="http://www.w3.org/2000/svg" width="56" height="56" viewBox="0 0 56 56">
  <circle id="Oval_Copy_3" data-name="Oval Copy 3" cx="28" cy="28" r="28" fill="#fcb72b"/>
  <g id="_001-scooter" data-name="001-scooter" transform="translate(15.75 18.667)">
    <path id="Path" d="M.482,0A.482.482,0,0,0,0,.482.482.482,0,0,0,.482.965.482.482,0,0,0,.965.482.482.482,0,0,0,.482,0Z" transform="translate(10.058 17.676)"/>
    <path id="Shape" d="M20.781,18.617H12.47a.482.482,0,1,1,0-.965h6.255a2.788,2.788,0,0,1-.475-2.894h-.611a2.384,2.384,0,0,1-1.914.967H8.769a.479.479,0,0,1,.01.1,2.8,2.8,0,0,1-2.8,2.8H.482a.482.482,0,1,1,0-.965H3.869a2.785,2.785,0,0,1-.686-1.832.479.479,0,0,1,.01-.1H.482A.482.482,0,0,1,0,15.241v-.364A7.332,7.332,0,0,1,2.3,9.541L1.231,8.474A1.45,1.45,0,0,1,0,7.043V4.533A4.488,4.488,0,0,1,.035,3.97s0-.005,0-.008a.485.485,0,0,1,.023-.146A4.541,4.541,0,0,1,4.533,0H7.645A1.448,1.448,0,0,1,9.092,1.447V5.678A1.452,1.452,0,0,1,9.574,5.6h1.76a1.447,1.447,0,0,1,.722,2.7,1.446,1.446,0,0,1,.171.684V12.83h2.084a1.912,1.912,0,0,0,1.912-1.91l0-1.6a.482.482,0,0,1,.482-.481h0a.482.482,0,0,1,.482.482l0,1.6a2.876,2.876,0,0,1-2.876,2.874H11.745a.482.482,0,0,1-.482-.482V8.98a.491.491,0,0,0-.49-.49H7.351A6.394,6.394,0,0,0,.966,14.759h.991a4.028,4.028,0,0,1,1.521-2.705l0,0a4.01,4.01,0,0,1,2.5-.864A4.058,4.058,0,0,1,10,14.759h5.72a1.418,1.418,0,0,0,1.233-.721l2.291-4.081L18.039,4.487h-.844v.972a.482.482,0,1,1-.965,0V4.487H13.747a1.254,1.254,0,0,1,0-2.508h1.144a1.205,1.205,0,0,1,1.123-.771h2.848a1.2,1.2,0,0,1,.9.408,1.431,1.431,0,0,1,.785-.233h.965A.482.482,0,0,1,22,1.864v1.93a.482.482,0,0,1-.482.482h-.965a1.441,1.441,0,0,1-.765-.22,1.2,1.2,0,0,1-.76.418l1.124,5.079A4.731,4.731,0,0,1,24.7,14.275a.482.482,0,0,1-.482.482h-.789a2.8,2.8,0,0,1-2.588,3.86Z" transform="translate(0 0.024)" fill="#495567"/>
    <path id="Path-2" data-name="Path" d="M.483.965A.482.482,0,0,0,.483,0h0a.482.482,0,1,0,0,.965Z" transform="translate(16.229 6.93)"/>
  </g>
</svg>
